Coordinates
version=1
nRows=16
nColumns=36
inDegrees=yes

Units are S.I. units (second, meters, Newtons, ...)
If the header above contains a line with 'inDegrees', this indicates whether rotational values are in degrees (yes) or radians (no).

endheader
time	pelvis_tilt	pelvis_list	pelvis_rotation	pelvis_tx	pelvis_ty	pelvis_tz	hip_flexion_r	hip_adduction_r	hip_rotation_r	knee_angle_r	knee_angle_r_beta	ankle_angle_r	subtalar_angle_r	mtp_angle_r	hip_flexion_l	hip_adduction_l	hip_rotation_l	knee_angle_l	knee_angle_l_beta	ankle_angle_l	subtalar_angle_l	mtp_angle_l	lumbar_extension	lumbar_bending	lumbar_rotation	arm_flex_r	arm_add_r	arm_rot_r	elbow_flex_r	pro_sup_r	arm_flex_l	arm_add_l	arm_rot_l	elbow_flex_l	pro_sup_l
      0.00000000	      1.59352334	      0.98841937	      1.28772442	      0.18714895	      0.93037494	     -0.01867613	     -7.89426992	      1.85406849	      1.91371406	      0.56669823	      0.00989075	      7.22340500	     -5.98175326	     -7.19956400	     -5.60780035	     -2.20548826	      2.02788400	      1.48909524	      0.02598961	      7.39313673	     -6.58672355	     -7.19956400	     -0.74087618	      1.57197127	     -5.71484598	     23.65708997	     -4.94152687	     66.09033258	    107.48206898	     97.09245526	     14.79906522	     -8.54312987	     34.95474553	    103.78169916	     90.35433476
      0.01666670	     -0.54353817	      1.37629781	      0.53820898	      0.18927547	      0.92851627	     -0.01944176	     -5.32046602	      1.30760249	      3.43093630	      0.65899284	      0.01150159	      9.47453225	     -4.56059880	     -7.20973329	     -3.18962451	     -1.26387143	      2.20920871	      1.44094488	      0.02514923	      6.30256579	     -5.76441848	     -7.20973329	      1.99394063	      1.80587240	     -4.84275272	     22.44756780	     -5.21676329	     67.67156927	    109.74273167	     97.60428327	     13.51411195	     -9.09079614	     35.79309696	    106.13147079	     90.49738164
      0.03333330	     -1.43871691	      2.12707182	     -0.16895143	      0.18973159	      0.92511793	     -0.01834546	     -4.39561235	      0.40012664	      3.39853622	      0.52979916	      0.00924674	      9.76369665	     -4.35032553	     -7.44120131	     -2.27129128	     -0.46280743	      1.17375730	      1.43484702	      0.02504280	      6.10089148	     -4.86455508	     -7.44120131	      3.13287500	      1.05414881	     -3.40333135	     20.94722241	     -5.65696749	     67.80290257	    110.57348250	     98.60904293	     13.36081183	     -8.94460143	     36.19743451	    106.30378094	     86.46916231
      0.05000000	     -1.48399972	      2.67682995	     -0.61566142	      0.18907821	      0.92617713	     -0.01741522	     -4.33982940	     -0.25944122	      3.86141122	      0.45555415	      0.00795092	     10.23946274	     -4.28983763	     -7.47068574	     -2.56354876	      0.16627050	      0.85611961	      1.02078721	      0.01781610	      5.84415002	     -4.98747302	     -7.47068574	      3.23046694	      0.46031482	     -2.00269607	     20.20940491	     -5.74886533	     68.06904713	    110.37786936	     96.54594484	     13.99161235	     -8.78473091	     37.12572819	    105.97085128	     82.01811121
      0.06666670	     -1.51794255	      2.91991270	     -0.83652808	      0.19019299	      0.92603094	     -0.01743939	     -4.37001613	     -0.52616324	      4.04560314	      0.39244507	      0.00684946	     10.51910322	     -4.17551019	     -7.48298113	     -2.69333088	      0.47730489	      0.65996723	      0.83884073	      0.01464053	      5.92122104	     -4.84981826	     -7.48298113	      3.29384541	      0.29508760	     -1.22218512	     20.01337796	     -5.66040245	     68.02200622	    109.81343382	     95.00354621	     14.14562161	     -8.49819764	     37.76818837	    105.83320750	     78.62654002
      0.08333330	     -1.64820697	      3.05419338	     -0.95265235	      0.18914705	      0.92503764	     -0.01696922	     -4.25099783	     -0.64495317	      4.45143269	      0.36171914	      0.00631319	     10.49559481	     -4.51155213	     -7.48473542	     -2.63053459	      0.63583301	      0.66698996	      0.72468399	      0.01264812	      6.02580794	     -4.93291785	     -7.48473542	      3.55460180	      0.17063642	     -0.77047218	     19.98333690	     -5.31647749	     68.37359093	    109.44276921	     93.04761721	     14.18700359	     -8.18322804	     38.02083745	    105.87813171	     76.75891691
      0.10000000	     -1.73761018	      3.13799098	     -0.99595646	      0.18765061	      0.92291120	     -0.01716998	     -4.12131853	     -0.72996258	      4.74509566	      0.34363264	      0.00599752	     10.59424303	     -4.86252764	     -7.48822065	     -2.49543554	      0.75619208	      0.83666988	      0.67076518	      0.01170706	      6.20224657	     -5.09911295	     -7.48822065	      3.70219919	      0.12234454	     -0.45825965	     20.21151465	     -5.02657749	     68.74541185	    109.22079362	     89.88398279	     14.32837548	     -8.02107646	     38.23278957	    106.31958878	     73.86426000
      0.11666670	     -1.80687323	      3.19110868	     -1.08078307	      0.18655837	      0.92457578	     -0.01681511	     -4.00504998	     -0.77938996	      5.16431950	      0.33084302	      0.00577430	     10.52220298	     -5.36961396	     -7.49125608	     -2.34572516	      0.82298393	      0.77600787	      0.64305520	      0.01122343	      6.31590194	     -4.95318196	     -7.49125608	      3.84332229	      0.10569898	     -0.17946843	     20.49739765	     -4.82250043	     69.16485313	    108.94336860	     87.34805442	     14.45839441	     -7.89968071	     38.36533722	    106.53630242	     71.63999239
      0.13333330	     -1.91828600	      3.22055075	     -1.03822345	      0.18726331	      0.92379107	     -0.01689537	     -3.88310709	     -0.80692805	      5.35386425	      0.32313796	      0.00563982	     10.51837391	     -5.65321974	     -7.49451575	     -2.16643875	      0.85831954	      1.03628140	      0.63462497	      0.01107630	      6.30800509	     -5.24228890	     -7.49451575	      3.99486015	      0.10392236	      0.04279529	     20.50281239	     -4.75106931	     69.07435378	    108.84431182	     88.86416999	     14.52586730	     -7.74932879	     38.40940474	    106.71884684	     69.59816609
      0.15000000	     -1.95925253	      3.24241567	     -1.05948358	      0.18800065	      0.92198104	     -0.01715118	     -3.81625084	     -0.82820271	      5.45530892	      0.31502105	      0.00549815	     10.48353360	     -5.87475514	     -7.49508359	     -2.13752381	      0.88501420	      1.06706643	      0.63789282	      0.01113333	      6.32266031	     -5.33082686	     -7.49508359	      4.06418588	      0.08996596	      0.22351361	     20.61705681	     -4.73430872	     69.22864452	    109.01145911	     87.66541079	     14.59541336	     -7.62605580	     38.39719016	    106.87721011	     69.13312732
      0.16666670	     -2.03336121	      3.26189569	     -1.03467941	      0.18859295	      0.92232169	     -0.01703567	     -3.74985935	     -0.84112153	      5.61876507	      0.30436385	      0.00531215	     10.42260909	     -6.26406119	     -7.49597230	     -2.07723355	      0.90506637	      1.32043423	      0.63734665	      0.01112380	      6.20546296	     -5.67964195	     -7.49597230	      4.20552054	      0.10570219	      0.19443900	     20.77642901	     -4.72527539	     69.65138499	    109.12428859	     86.26278293	     14.52977481	     -7.58841580	     38.33218174	    106.94120014	     68.10697621
      0.18333330	     -2.19029392	      3.27201608	     -1.08781298	      0.18885077	      0.92130708	     -0.01664796	     -3.58716895	     -0.83834257	      5.90116235	      0.29423055	      0.00513529	     10.31210111	     -6.74055739	     -7.49721777	     -1.93397963	      0.90691806	      1.33863214	      0.63891643	      0.01115120	      6.11113834	     -5.89614454	     -7.49721777	      4.41317432	      0.11146192	      0.17301974	     20.72169956	     -4.73717615	     69.85800156	    109.40442811	     84.98398578	     14.37134303	     -7.52971973	     38.11224581	    107.16851386	     66.89226392
      0.20000000	     -2.28609575	      3.29492423	     -1.15536957	      0.18840510	      0.92350154	     -0.01603494	     -3.49757091	     -0.85042580	      6.02106392	      0.28791313	      0.00502503	     10.30584877	     -6.87842767	     -7.49805750	     -1.85050175	      0.90150512	      1.09100856	      0.62706019	      0.01094426	      6.08138920	     -5.67528627	     -7.49805750	      4.54519445	      0.08226736	      0.40331297	     20.41801445	     -4.81955521	     69.95729841	    109.58479081	     86.04110612	     14.39590793	     -7.41168340	     38.12346367	    107.04168053	     66.51514641
      0.21666670	     -2.43940139	      3.32061507	     -1.14360456	      0.18700382	      0.92126639	     -0.01668813	     -3.30856374	     -0.87540383	      6.08200829	      0.28190789	      0.00492022	     10.21000206	     -7.11250969	     -7.49864507	     -1.67398143	      0.91784926	      1.08033394	      0.60990491	      0.01064485	      5.95958424	     -5.93337142	     -7.49864507	      4.70367926	      0.07913928	      0.34067852	     20.36282933	     -4.88482800	     70.41978710	    109.88283619	     83.56598589	     14.40499504	     -7.35468433	     38.01306784	    107.13174426	     65.77108903
      0.23333330	     -2.54035099	      3.28825302	     -1.16432120	      0.18815304	      0.92104365	     -0.01704488	     -3.20845414	     -0.85234338	      6.16697971	      0.27827947	      0.00485689	     10.06662040	     -7.20866254	     -7.49886072	     -1.59324312	      0.86165231	      0.94857282	      0.58512140	      0.01021229	      5.92088116	     -5.82551965	     -7.49886072	      4.79680869	      0.13467486	      0.43124376	     20.19858131	     -4.99962020	     70.42326739	    110.13181118	     86.13814148	     14.40794570	     -7.18723509	     37.89504714	    107.09678130	     66.24071933
      0.25000000	     -2.71137204	      3.23309389	     -1.11083710	      0.18881319	      0.92171176	     -0.01615715	     -3.02715334	     -0.77907339	      6.22118308	      0.27173798	      0.00474272	      9.87250139	     -7.32955408	     -7.49907217	     -1.44073823	      0.76837634	      1.05778875	      0.55226664	      0.00963887	      5.74590033	     -6.05150181	     -7.49907217	      4.98238083	      0.21443689	      0.35393584	     20.09501149	     -4.98797314	     70.61136541	    110.39423584	     84.25154600	     14.29419181	     -7.09975819	     37.70522387	    107.14117778	     65.74077271
